<svg width="12" height="16" viewBox="0 0 12 16" fill="none" xmlns="http://www.w3.org/2000/svg">
<path d="M7.76501 1.5V2C7.76501 2.28125 7.51501 2.5 7.26501 2.5H4.26501C3.98376 2.5 3.76501 2.28125 3.76501 2V1.5H2.76501C2.20251 1.5 1.76501 1.96875 1.76501 2.5V13.5C1.76501 14.0625 2.20251 14.5 2.76501 14.5H8.76501C9.29626 14.5 9.76501 14.0625 9.76501 13.5V2.5C9.76501 1.96875 9.29626 1.5 8.76501 1.5H7.76501ZM0.265015 2.5C0.265015 1.125 1.35876 0 2.76501 0H8.76501C10.14 0 11.265 1.125 11.265 2.5V13.5C11.265 14.9062 10.14 16 8.76501 16H2.76501C1.35876 16 0.265015 14.9062 0.265015 13.5V2.5Z" fill="#B9AEA5"/>
</svg>
